<svg  xmlns="http://www.w3.org/2000/svg"  xmlns:xlink="http://www.w3.org/1999/xlink"  width="249px" height="236px">
    <path fill-rule="evenodd"  fill="rgb(255, 255, 255)"
    d="M150.841,189.254 L150.841,206.954 L246.542,206.954 L246.542,235.154 L121.741,235.154 L121.741,189.554 C121.741,91.453 219.542,116.353 219.542,60.853 C219.542,38.052 208.741,26.952 184.441,26.952 C162.241,26.952 149.941,38.952 149.941,65.653 L121.441,65.653 C121.441,20.652 146.941,0.852 185.641,0.852 C224.042,0.852 248.342,19.452 248.342,60.553 C248.342,144.253 150.841,107.353 150.841,189.254 ZM0.241,210.854 L37.741,210.854 L37.741,29.052 L8.341,29.052 L8.341,3.552 L66.242,3.552 L66.242,210.854 L101.942,210.854 L101.942,235.154 L0.241,235.154 L0.241,210.854 Z"/>
</svg>