<svg  xmlns="http://www.w3.org/2000/svg"  xmlns:xlink="http://www.w3.org/1999/xlink"  width="131px" height="236px">
    <path fill-rule="evenodd"  fill="rgb(255, 255, 255)"
    d="M0.041,168.754 C0.041,213.454 16.841,235.354 63.042,235.354 C107.742,235.354 130.542,208.654 130.542,165.454 C130.542,133.353 119.442,118.353 96.342,109.353 C119.442,99.753 127.242,76.653 127.242,58.953 C127.242,19.052 100.242,0.152 65.442,0.152 C24.041,0.752 2.741,22.352 2.741,64.053 L29.741,64.053 C29.741,34.652 44.742,25.352 65.142,25.352 C87.942,25.352 99.642,37.652 99.642,58.653 C99.642,80.553 77.142,96.153 60.342,96.753 L43.842,96.753 L43.842,121.953 L60.342,121.953 C82.242,121.953 100.542,132.453 100.542,165.754 C100.542,196.654 87.342,207.454 62.742,207.454 C37.542,207.454 27.941,196.054 27.941,168.754 L0.041,168.754 Z"/>
</svg>