<?xml version="1.0" encoding="utf-8"?>
<!-- Generator: Adobe Illustrator 16.0.3, SVG Export Plug-In . SVG Version: 6.00 Build 0)  -->
<!DOCTYPE svg PUBLIC "-//W3C//DTD SVG 1.1//EN" "http://www.w3.org/Graphics/SVG/1.1/DTD/svg11.dtd">
<svg version="1.1" xmlns="http://www.w3.org/2000/svg" xmlns:xlink="http://www.w3.org/1999/xlink" x="0px" y="0px" width="24px"
	 height="24px" viewBox="0 0 24 24" enable-background="new 0 0 24 24" xml:space="preserve">
<g id="Outline_Icons">
	<g>
		<path fill="none" stroke="#000000" stroke-linejoin="round" stroke-miterlimit="10" d="M21.5,11.001
			c-4.951,2.52-8.355,6.659-9.5,8.246c1.091,1.747,3.109,2.911,5.32,2.911c3.412,0,6.18-2.766,6.18-6.178
			C23.5,14.092,22.834,12.134,21.5,11.001z"/>
		<path fill="none" stroke="#000000" stroke-linejoin="round" stroke-miterlimit="10" d="M2.5,11.001
			c4.949,2.52,8.357,6.659,9.5,8.246c-1.091,1.747-3.108,2.911-5.321,2.911c-3.411,0-6.179-2.766-6.179-6.178
			C0.5,14.092,1.164,12.134,2.5,11.001z"/>
		
			<line fill="none" stroke="#000000" stroke-linecap="round" stroke-linejoin="round" stroke-miterlimit="10" x1="2.5" y1="11.001" x2="2.5" y2="4.001"/>
		
			<line fill="none" stroke="#000000" stroke-linecap="round" stroke-linejoin="round" stroke-miterlimit="10" x1="21.5" y1="11.001" x2="21.5" y2="4.001"/>
	</g>
</g>
<g id="invisible_shape">
	<rect fill="none" width="24" height="24"/>
</g>
</svg>
