
<svg width="96px" height="96px" viewBox="0 0 96 96" version="1.1" xmlns="http://www.w3.org/2000/svg" xmlns:xlink="http://www.w3.org/1999/xlink">
    <!-- Generator: Sketch 49.3 (51167) - http://www.bohemiancoding.com/sketch -->
    <desc>Created with Sketch.</desc>
    <defs>
        <path d="M24.54,9.087 C29.159,10.392 32.697,14.302 33.475,19.13 C38.558,20.007 42.596,23.976 43.593,29.032 C48.773,30.003 52.833,34.194 53.628,39.449 C58.1,40.208 61.768,43.359 63.276,47.541 L85.555,69.891 C87.787,72.13 88.019,75.529 86.073,77.481 L77.438,86.144 C75.491,88.096 72.104,87.864 69.871,85.624 L47.963,63.646 C43.454,62.247 40.031,58.349 39.308,53.57 C34.211,52.704 30.158,48.731 29.16,43.665 C24.018,42.701 19.979,38.567 19.141,33.368 C14.42,32.552 10.6,29.069 9.282,24.525 C4.046,23.046 0.197,18.219 0.184,12.501 C0.17,5.617 5.721,0.048 12.583,0.063 C18.246,0.075 23.032,3.886 24.54,9.087 Z" id="path-1"></path>
    </defs>
    <g id="Page-1" stroke="none" stroke-width="1" fill="none" fill-rule="evenodd">
        <g id="dildo" transform="translate(4.000000, 4.000000)">
            <g id="Shape">
                <use fill="#FF526F" fill-rule="evenodd" xlink:href="#path-1"></use>
                <path stroke="#903142" stroke-width="4" d="M26.1192617,7.49771535 C30.5663532,9.12656263 33.9647613,12.8647928 35.1647059,17.4595283 C39.9955237,18.7820456 43.8283312,22.5524337 45.2424245,27.3676774 C50.2006041,28.7773035 54.0667967,32.7664299 55.3297272,37.7785296 C59.7125155,38.9717246 63.3101918,42.1889121 64.994335,46.4318734 L86.971426,68.4790023 C89.9419364,71.4588288 90.2596668,76.1142155 87.4895009,78.8929225 L78.854026,87.5563988 C76.0787376,90.3388143 71.4288487,90.0195961 68.4545325,87.035956 L46.8828288,65.3953269 C42.2911933,63.7890425 38.7942231,59.9521131 37.6063713,55.2404136 C32.7670984,53.9229745 28.925685,50.1504937 27.510385,45.3292767 C22.5923713,43.9311783 18.745522,39.9961559 17.4511373,35.0379874 C12.9722653,33.8101217 9.33076248,30.4718341 7.70323401,26.1147447 C2.07657151,24.0566235 -1.80200267,18.6599449 -1.81599586,12.5050674 C-1.83224628,4.5145041 4.61620067,-1.95441982 12.587238,-1.93699551 C18.6841042,-1.92407614 24.0360914,1.91281662 26.1192617,7.49771535 Z"></path>
            </g>
        </g>
        <g id="dildo" transform="translate(52.000000, 52.000000)" fill="#FFFFFF">
            <polygon id="Shape" points="0.234 15.882 15.844 0.222 19.613 4.004 4.004 19.663"></polygon>
        </g>
        <circle id="Oval" fill="#FFFFFF" cx="70" cy="70" r="3"></circle>
        <circle id="Oval" fill="#FFFFFF" cx="78" cy="78" r="3"></circle>
    </g>
</svg>